<svg width="65" height="65" viewBox="0 0 114 114" fill="none" xmlns="http://www.w3.org/2000/svg">
<g clip-path="url(#clip0_10_15)">
<path d="M112.441 98.5699L90.2426 76.3711C89.2406 75.3691 87.8824 74.8125 86.4574 74.8125H82.8281C88.9734 66.9527 92.625 57.0668 92.625 46.3125C92.625 20.7293 71.8957 0 46.3125 0C20.7293 0 0 20.7293 0 46.3125C0 71.8957 20.7293 92.625 46.3125 92.625C57.0668 92.625 66.9527 88.9734 74.8125 82.8281V86.4574C74.8125 87.8824 75.3691 89.2406 76.3711 90.2426L98.5699 112.441C100.663 114.534 104.047 114.534 106.118 112.441L112.419 106.14C114.512 104.047 114.512 100.663 112.441 98.5699ZM46.3125 74.8125C30.5707 74.8125 17.8125 62.0766 17.8125 46.3125C17.8125 30.5707 30.5484 17.8125 46.3125 17.8125C62.0543 17.8125 74.8125 30.5484 74.8125 46.3125C74.8125 62.0543 62.0766 74.8125 46.3125 74.8125Z" fill="black"/>
<path d="M39.0514 59.7039C39.0514 59.8836 38.8427 60.0273 38.5796 60.0273C38.2802 60.0543 38.0716 59.9105 38.0716 59.7039C38.0716 59.5242 38.2802 59.3805 38.5433 59.3805C38.8155 59.3535 39.0514 59.4973 39.0514 59.7039ZM36.2298 59.2996C36.1663 59.4793 36.3478 59.6859 36.62 59.7398C36.8558 59.8297 37.128 59.7398 37.1825 59.5602C37.2369 59.3805 37.0645 59.1738 36.7923 59.093C36.5565 59.0301 36.2933 59.1199 36.2298 59.2996ZM40.2399 59.1469C39.9768 59.2098 39.7954 59.3805 39.8226 59.5871C39.8498 59.7668 40.0857 59.8836 40.3579 59.8207C40.621 59.7578 40.8024 59.5871 40.7752 59.4074C40.748 59.2367 40.503 59.1199 40.2399 59.1469ZM46.2097 24.7188C33.626 24.7188 24 34.1793 24 46.6406C24 56.6043 30.3327 65.1305 39.378 68.1313C40.5393 68.3379 40.9476 67.6281 40.9476 67.0441C40.9476 66.4871 40.9204 63.4145 40.9204 61.5277C40.9204 61.5277 34.5696 62.8754 33.2359 58.8504C33.2359 58.8504 32.2016 56.2359 30.7137 55.5621C30.7137 55.5621 28.6361 54.1516 30.8589 54.1785C30.8589 54.1785 33.1179 54.3582 34.3609 56.4965C36.3478 59.9645 39.6774 58.9672 40.9748 58.3742C41.1835 56.9367 41.7732 55.9395 42.4264 55.3465C37.3548 54.7895 32.2379 54.0617 32.2379 45.4187C32.2379 42.948 32.9274 41.7082 34.379 40.127C34.1431 39.543 33.372 37.1352 34.6149 34.0266C36.5111 33.4426 40.875 36.4523 40.875 36.4523C42.6895 35.9492 44.6401 35.6887 46.5726 35.6887C48.505 35.6887 50.4556 35.9492 52.2702 36.4523C52.2702 36.4523 56.6341 33.4336 58.5302 34.0266C59.7732 37.1441 59.002 39.543 58.7661 40.127C60.2177 41.7172 61.1069 42.957 61.1069 45.4187C61.1069 54.0887 55.7631 54.7805 50.6915 55.3465C51.5262 56.0562 52.2339 57.4039 52.2339 59.5152C52.2339 62.543 52.2067 66.2895 52.2067 67.0262C52.2067 67.6102 52.624 68.3199 53.7762 68.1133C62.8488 65.1305 69 56.6043 69 46.6406C69 34.1793 58.7933 24.7188 46.2097 24.7188ZM32.8185 55.7059C32.7006 55.7957 32.7278 56.0023 32.8821 56.173C33.0272 56.3168 33.2359 56.3797 33.3538 56.2629C33.4718 56.173 33.4446 55.9664 33.2903 55.7957C33.1452 55.652 32.9365 55.5891 32.8185 55.7059ZM31.8387 54.9781C31.7752 55.0949 31.8659 55.2387 32.0474 55.3285C32.1925 55.4184 32.374 55.3914 32.4375 55.2656C32.501 55.1488 32.4103 55.0051 32.2288 54.9152C32.0474 54.8613 31.9022 54.8883 31.8387 54.9781ZM34.7782 58.1766C34.6331 58.2934 34.6875 58.5629 34.8962 58.7336C35.1048 58.9402 35.3679 58.9672 35.4859 58.8234C35.6038 58.7066 35.5494 58.4371 35.3679 58.2664C35.1683 58.0598 34.8962 58.0328 34.7782 58.1766ZM33.744 56.8559C33.5988 56.9457 33.5988 57.1793 33.744 57.3859C33.8891 57.5926 34.1341 57.6824 34.252 57.5926C34.3972 57.4758 34.3972 57.2422 34.252 57.0355C34.125 56.8289 33.8891 56.7391 33.744 56.8559Z" fill="black"/>
</g>
<defs>
<clipPath id="clip0_10_15">
<rect width="114" height="114" fill="white"/>
</clipPath>
</defs>
</svg>
