<svg width="20" height="20" viewBox="0 0 46 46" fill="none" xmlns="http://www.w3.org/2000/svg">
<path fill-rule="evenodd" clip-rule="evenodd" d="M28.1143 37.4719C32.5077 31.8696 38.0417 23.7302 38.0417 18.2765C38.0417 9.23316 31.2289 1.90207 22.825 1.90207C14.4211 1.90207 7.60834 9.23316 7.60834 18.2765C7.60834 23.7302 13.1424 31.8696 17.5357 37.4719C19.8278 40.3948 20.9738 41.8562 22.825 41.8562C24.6762 41.8562 25.8222 40.3948 28.1143 37.4719ZM22.825 24.7271C19.6735 24.7271 17.1188 22.1723 17.1188 19.0208C17.1188 15.8693 19.6735 13.3146 22.825 13.3146C25.9765 13.3146 28.5313 15.8693 28.5313 19.0208C28.5313 22.1723 25.9765 24.7271 22.825 24.7271Z" fill="black"/>
</svg>
