<svg width="20" height="20" viewBox="0 0 48 48" fill="none" xmlns="http://www.w3.org/2000/svg">
<g clip-path="url(#clip0_6_30)">
<path d="M47.3438 41.5032L37.9969 32.1563C37.575 31.7344 37.0031 31.5 36.4031 31.5H34.875C37.4625 28.1907 39 24.0282 39 19.5C39 8.72816 30.2719 3.05176e-05 19.5 3.05176e-05C8.72812 3.05176e-05 0 8.72816 0 19.5C0 30.2719 8.72812 39 19.5 39C24.0281 39 28.1906 37.4625 31.5 34.875V36.4032C31.5 37.0032 31.7344 37.575 32.1562 37.9969L41.5031 47.3438C42.3844 48.225 43.8094 48.225 44.6813 47.3438L47.3344 44.6907C48.2156 43.8094 48.2156 42.3844 47.3438 41.5032ZM19.5 31.5C12.8719 31.5 7.5 26.1375 7.5 19.5C7.5 12.8719 12.8625 7.50003 19.5 7.50003C26.1281 7.50003 31.5 12.8625 31.5 19.5C31.5 26.1282 26.1375 31.5 19.5 31.5Z" fill="black"/>
</g>
<defs>
<clipPath id="clip0_6_30">
<rect width="48" height="48" fill="white"/>
</clipPath>
</defs>
</svg>
