<svg width="20" height="20" viewBox="0 0 46 46" fill="none" xmlns="http://www.w3.org/2000/svg">
<g clip-path="url(#clip0_6_27)">
<path d="M11.4123 42.7969H34.2373V7.13281C34.2373 4.77006 32.3204 2.85312 29.9576 2.85312H15.692C13.3292 2.85312 11.4123 4.77006 11.4123 7.13281V42.7969ZM17.1186 8.55937H28.5311V11.4125H17.1186V8.55937ZM45.6498 15.6922V38.5172C45.6498 40.8799 43.7329 42.7969 41.3701 42.7969H37.0904V11.4125H41.3701C43.7329 11.4125 45.6498 13.3294 45.6498 15.6922ZM8.55918 42.7969H4.27949C1.91675 42.7969 -0.000198364 40.8799 -0.000198364 38.5172V15.6922C-0.000198364 13.3294 1.91675 11.4125 4.27949 11.4125H8.55918V42.7969Z" fill="black"/>
</g>
<defs>
<clipPath id="clip0_6_27">
<rect width="45.65" height="45.65" fill="white"/>
</clipPath>
</defs>
</svg>
