<svg width="20" height="20" viewBox="0 0 46 46" fill="none" xmlns="http://www.w3.org/2000/svg">
<g clip-path="url(#clip0_7_4)">
<path d="M27.1123 36.1907C27.5301 36.6085 27.5301 37.286 27.1123 37.7039L23.1291 41.687C17.8452 46.9708 9.24752 46.9712 3.96318 41.687C-1.32081 36.4029 -1.32081 27.8051 3.96318 22.5212L7.94641 18.5379C8.36421 18.1201 9.04165 18.1201 9.45955 18.5379L12.9901 22.0685C13.4079 22.4863 13.4079 23.1637 12.9901 23.5816L9.00688 27.5648C6.50398 30.0678 6.50398 34.1403 9.00688 36.6433C11.5098 39.1462 15.5824 39.1463 18.0855 36.6433L22.0687 32.6602C22.4865 32.2424 23.1639 32.2424 23.5818 32.6602L27.1123 36.1907ZM22.0687 12.9898C22.4865 13.4076 23.1639 13.4076 23.5818 12.9898L27.5649 9.0067C30.0678 6.50353 34.1405 6.5037 36.6436 9.0067C39.1465 11.5097 39.1465 15.5823 36.6436 18.0853L32.6604 22.0684C32.2426 22.4862 32.2426 23.1636 32.6604 23.5815L36.1909 27.1121C36.6087 27.5299 37.2862 27.5299 37.7041 27.1121L41.6873 23.1289C46.9714 17.8448 46.9714 9.24707 41.6873 3.963C36.4031 -1.32099 27.8055 -1.32099 22.5213 3.963L18.5382 7.94614C18.1204 8.36394 18.1204 9.04138 18.5382 9.45928L22.0687 12.9898ZM43.006 45.0233L45.0234 43.0059C45.8591 42.1702 45.8591 40.8153 45.0234 39.9797L5.6706 0.626713C4.8349 -0.208986 3.48002 -0.208986 2.64441 0.626713L0.626896 2.64423C-0.208802 3.47993 -0.208802 4.83481 0.626896 5.67041L39.9798 45.0233C40.8155 45.8589 42.1704 45.8589 43.006 45.0233Z" fill="black"/>
</g>
<defs>
<clipPath id="clip0_7_4">
<rect width="45.65" height="45.65" fill="white"/>
</clipPath>
</defs>
</svg>
